<svg xmlns="http://www.w3.org/2000/svg" width="200" height="200" viewBox="0 0 200 200">
  <!-- QR Code placeholder background -->
  <rect width="200" height="200" fill="white"/>
  
  <!-- Sample QR code pattern -->
  <rect x="0" y="0" width="30" height="30" fill="black"/>
  <rect x="0" y="170" width="30" height="30" fill="black"/>
  <rect x="170" y="0" width="30" height="30" fill="black"/>
  
  <!-- Corner markers -->
  <rect x="5" y="5" width="20" height="20" fill="white"/>
  <rect x="5" y="175" width="20" height="20" fill="white"/>
  <rect x="175" y="5" width="20" height="20" fill="white"/>
  
  <rect x="10" y="10" width="10" height="10" fill="black"/>
  <rect x="10" y="180" width="10" height="10" fill="black"/>
  <rect x="180" y="10" width="10" height="10" fill="black"/>
  
  <!-- Data pattern simulation -->
  <rect x="40" y="10" width="5" height="5" fill="black"/>
  <rect x="50" y="10" width="5" height="5" fill="black"/>
  <rect x="60" y="10" width="5" height="5" fill="black"/>
  <rect x="80" y="10" width="5" height="5" fill="black"/>
  <rect x="90" y="10" width="5" height="5" fill="black"/>
  <rect x="110" y="10" width="5" height="5" fill="black"/>
  <rect x="130" y="10" width="5" height="5" fill="black"/>
  <rect x="140" y="10" width="5" height="5" fill="black"/>
  
  <rect x="40" y="20" width="5" height="5" fill="black"/>
  <rect x="70" y="20" width="5" height="5" fill="black"/>
  <rect x="100" y="20" width="5" height="5" fill="black"/>
  <rect x="120" y="20" width="5" height="5" fill="black"/>
  <rect x="150" y="20" width="5" height="5" fill="black"/>
  
  <!-- More pattern -->
  <rect x="10" y="40" width="5" height="5" fill="black"/>
  <rect x="20" y="40" width="5" height="5" fill="black"/>
  <rect x="40" y="40" width="5" height="5" fill="black"/>
  <rect x="60" y="40" width="5" height="5" fill="black"/>
  <rect x="80" y="40" width="5" height="5" fill="black"/>
  <rect x="100" y="40" width="5" height="5" fill="black"/>
  <rect x="120" y="40" width="5" height="5" fill="black"/>
  <rect x="140" y="40" width="5" height="5" fill="black"/>
  <rect x="160" y="40" width="5" height="5" fill="black"/>
  <rect x="180" y="40" width="5" height="5" fill="black"/>
  
  <!-- Center pattern -->
  <rect x="85" y="85" width="30" height="30" fill="black"/>
  <rect x="90" y="90" width="20" height="20" fill="white"/>
  <rect x="95" y="95" width="10" height="10" fill="black"/>
  
  <!-- More data simulation -->
  <rect x="10" y="60" width="5" height="5" fill="black"/>
  <rect x="30" y="60" width="5" height="5" fill="black"/>
  <rect x="50" y="60" width="5" height="5" fill="black"/>
  <rect x="70" y="60" width="5" height="5" fill="black"/>
  <rect x="130" y="60" width="5" height="5" fill="black"/>
  <rect x="150" y="60" width="5" height="5" fill="black"/>
  <rect x="170" y="60" width="5" height="5" fill="black"/>
  <rect x="190" y="60" width="5" height="5" fill="black"/>
  
  <!-- Bottom pattern -->
  <rect x="40" y="180" width="5" height="5" fill="black"/>
  <rect x="50" y="180" width="5" height="5" fill="black"/>
  <rect x="60" y="180" width="5" height="5" fill="black"/>
  <rect x="80" y="180" width="5" height="5" fill="black"/>
  <rect x="90" y="180" width="5" height="5" fill="black"/>
  <rect x="110" y="180" width="5" height="5" fill="black"/>
  <rect x="130" y="180" width="5" height="5" fill="black"/>
  <rect x="140" y="180" width="5" height="5" fill="black"/>
  
  <!-- Text overlay for demo -->
  <text x="100" y="130" text-anchor="middle" fill="#f0c97b" font-size="12" font-weight="bold">SAMPLE QR</text>
</svg>